<svg width="25" height="25" viewBox="0 0 25 25" fill="none" xmlns="http://www.w3.org/2000/svg">
<g clip-path="url(#clip0_573_68)">
<path d="M20.7687 8.33333H21.875C22.4275 8.33333 22.9574 8.55282 23.3481 8.94353C23.7388 9.33423 23.9583 9.86413 23.9583 10.4167V14.5833C23.9583 15.1359 23.7388 15.6658 23.3481 16.0565C22.9574 16.4472 22.4275 16.6667 21.875 16.6667H20.7687C20.5148 18.6805 19.5346 20.5325 18.0122 21.875C16.4898 23.2175 14.5298 23.9583 12.5 23.9583V21.875C14.1576 21.875 15.7473 21.2165 16.9194 20.0444C18.0915 18.8723 18.75 17.2826 18.75 15.625V9.375C18.75 7.71739 18.0915 6.12768 16.9194 4.95558C15.7473 3.78348 14.1576 3.125 12.5 3.125C10.8424 3.125 9.25264 3.78348 8.08054 4.95558C6.90844 6.12768 6.24996 7.71739 6.24996 9.375V16.6667H3.12496C2.57242 16.6667 2.04252 16.4472 1.65182 16.0565C1.26112 15.6658 1.04163 15.1359 1.04163 14.5833V10.4167C1.04163 9.86413 1.26112 9.33423 1.65182 8.94353C2.04252 8.55282 2.57242 8.33333 3.12496 8.33333H4.23121C4.48541 6.31968 5.46567 4.46799 6.98806 3.1257C8.51045 1.78341 10.4703 1.04279 12.5 1.04279C14.5296 1.04279 16.4895 1.78341 18.0119 3.1257C19.5343 4.46799 20.5145 6.31968 20.7687 8.33333ZM3.12496 10.4167V14.5833H4.16663V10.4167H3.12496ZM20.8333 10.4167V14.5833H21.875V10.4167H20.8333ZM8.08329 16.4427L9.18746 14.676C10.1802 15.2979 11.3285 15.6269 12.5 15.625C13.6715 15.6269 14.8197 15.2979 15.8125 14.676L16.9166 16.4427C15.5929 17.272 14.062 17.7107 12.5 17.7083C10.9379 17.7107 9.40698 17.272 8.08329 16.4427Z" fill="#444444"/>
</g>
<defs>
<clipPath id="clip0_573_68">
<rect width="25" height="25" fill="white"/>
</clipPath>
</defs>
</svg>
