<svg width="25" height="25" viewBox="0 0 25 25" fill="none" xmlns="http://www.w3.org/2000/svg">
<mask id="path-1-inside-1_601_121" fill="white">
<path d="M7.26968 24.3262C7.26968 24.7079 7.64754 24.9998 8.14167 24.9998H19.7681C20.2622 24.9998 20.6401 24.7079 20.6401 24.3262C20.6401 23.9445 20.2622 23.6526 19.7681 23.6526H8.14167C7.64754 23.6526 7.26968 23.9445 7.26968 24.3262Z"/>
</mask>
<path d="M7.26968 24.3262C7.26968 24.7079 7.64754 24.9998 8.14167 24.9998H19.7681C20.2622 24.9998 20.6401 24.7079 20.6401 24.3262C20.6401 23.9445 20.2622 23.6526 19.7681 23.6526H8.14167C7.64754 23.6526 7.26968 23.9445 7.26968 24.3262Z" fill="white"/>
<path d="M4.26968 24.3262C4.26968 27.0389 6.75686 27.9998 8.14167 27.9998V21.9998C8.46569 21.9998 8.91645 22.0937 9.35438 22.432C9.81446 22.7874 10.2697 23.447 10.2697 24.3262H4.26968ZM8.14167 27.9998H19.7681V21.9998H8.14167V27.9998ZM19.7681 27.9998C21.1529 27.9998 23.6401 27.0389 23.6401 24.3262H17.6401C17.6401 23.447 18.0953 22.7874 18.5554 22.432C18.9933 22.0937 19.4441 21.9998 19.7681 21.9998V27.9998ZM23.6401 24.3262C23.6401 21.6135 21.1529 20.6526 19.7681 20.6526V26.6526C19.4441 26.6526 18.9933 26.5587 18.5554 26.2204C18.0953 25.865 17.6401 25.2054 17.6401 24.3262H23.6401ZM19.7681 20.6526H8.14167V26.6526H19.7681V20.6526ZM8.14167 20.6526C6.75686 20.6526 4.26968 21.6135 4.26968 24.3262H10.2697C10.2697 25.2054 9.81446 25.865 9.35438 26.2204C8.91645 26.5587 8.46569 26.6526 8.14167 26.6526V20.6526Z" fill="white" mask="url(#path-1-inside-1_601_121)"/>
<mask id="path-3-inside-2_601_121" fill="white">
<path d="M0.235706 21.3848L0.00317727 24.2814C-0.0258888 24.5283 0.148508 24.7753 0.439169 24.9101C0.584499 24.9774 0.72983 24.9999 0.87516 24.9999C1.04956 24.9999 1.22395 24.955 1.36928 24.8876L4.50842 23.2934C6.10706 22.4626 7.47317 21.3624 8.43235 20.0601L17.2394 8.29441C17.4719 7.98006 17.3266 7.55344 16.9197 7.37381C16.5127 7.19418 15.9605 7.30645 15.7279 7.6208L6.92091 19.3865C6.07799 20.4867 4.91535 21.4522 3.52018 22.1707L1.83434 23.024L1.95061 21.4747C2.0378 20.1948 2.53193 18.9374 3.37485 17.8147L12.1819 6.04905C12.4144 5.7347 12.2691 5.30808 11.8621 5.12845C11.4552 4.94882 10.903 5.06109 10.6704 5.37544L1.89247 17.1411C0.904227 18.4434 0.35197 19.9029 0.235706 21.3848Z"/>
</mask>
<path d="M0.235706 21.3848L0.00317727 24.2814C-0.0258888 24.5283 0.148508 24.7753 0.439169 24.9101C0.584499 24.9774 0.72983 24.9999 0.87516 24.9999C1.04956 24.9999 1.22395 24.955 1.36928 24.8876L4.50842 23.2934C6.10706 22.4626 7.47317 21.3624 8.43235 20.0601L17.2394 8.29441C17.4719 7.98006 17.3266 7.55344 16.9197 7.37381C16.5127 7.19418 15.9605 7.30645 15.7279 7.6208L6.92091 19.3865C6.07799 20.4867 4.91535 21.4522 3.52018 22.1707L1.83434 23.024L1.95061 21.4747C2.0378 20.1948 2.53193 18.9374 3.37485 17.8147L12.1819 6.04905C12.4144 5.7347 12.2691 5.30808 11.8621 5.12845C11.4552 4.94882 10.903 5.06109 10.6704 5.37544L1.89247 17.1411C0.904227 18.4434 0.35197 19.9029 0.235706 21.3848Z" fill="white"/>
<path d="M0.235706 21.3848L3.22609 21.6249L3.22652 21.6195L0.235706 21.3848ZM0.00317727 24.2814L2.98262 24.632L2.98911 24.5768L2.99356 24.5214L0.00317727 24.2814ZM1.36928 24.8876L2.63086 27.6094L2.6797 27.5868L2.72769 27.5624L1.36928 24.8876ZM4.50842 23.2934L5.86683 25.9682L5.87935 25.9619L5.89182 25.9554L4.50842 23.2934ZM8.43235 20.0601L6.03066 18.2623L6.0237 18.2716L6.01681 18.281L8.43235 20.0601ZM17.2394 8.29441L19.6411 10.0922L19.6462 10.0853L19.6512 10.0785L17.2394 8.29441ZM15.7279 7.6208L18.1296 9.41855L18.1347 9.41173L18.1398 9.40488L15.7279 7.6208ZM6.92091 19.3865L9.30235 21.211L9.31255 21.1977L9.3226 21.1842L6.92091 19.3865ZM3.52018 22.1707L4.87491 24.8474L4.88433 24.8426L4.89373 24.8378L3.52018 22.1707ZM1.83434 23.024L-1.15725 22.7995L-1.55515 28.1018L3.18907 25.7007L1.83434 23.024ZM1.95061 21.4747L4.94219 21.6992L4.94297 21.6889L4.94367 21.6786L1.95061 21.4747ZM3.37485 17.8147L5.77392 19.616L5.77653 19.6125L3.37485 17.8147ZM12.1819 6.04905L14.5836 7.8468L14.5887 7.83998L14.5937 7.83313L12.1819 6.04905ZM10.6704 5.37544L13.075 7.1694L13.0823 7.15952L10.6704 5.37544ZM1.89247 17.1411L4.28229 18.9546L4.28969 18.9449L4.29701 18.9351L1.89247 17.1411ZM-2.75467 21.1448L-2.9872 24.0413L2.99356 24.5214L3.22609 21.6249L-2.75467 21.1448ZM-2.97626 23.9307C-3.20999 25.9169 -1.81669 27.171 -0.822406 27.6319L1.70074 22.1882C2.1137 22.3796 3.15822 23.1398 2.98262 24.632L-2.97626 23.9307ZM-0.822406 27.6319C-0.190058 27.925 0.407933 27.9999 0.87516 27.9999V21.9999C1.05173 21.9999 1.35906 22.0298 1.70074 22.1882L-0.822406 27.6319ZM0.87516 27.9999C1.54044 27.9999 2.14349 27.8353 2.63086 27.6094L0.10771 22.1658C0.304418 22.0746 0.558671 21.9999 0.87516 21.9999V27.9999ZM2.72769 27.5624L5.86683 25.9682L3.15002 20.6186L0.0108775 22.2128L2.72769 27.5624ZM5.89182 25.9554C7.81635 24.9552 9.56721 23.578 10.8479 21.8392L6.01681 18.281C5.37913 19.1468 4.39777 19.97 3.12503 20.6314L5.89182 25.9554ZM10.834 21.8578L19.6411 10.0922L14.8377 6.49666L6.03066 18.2623L10.834 21.8578ZM19.6512 10.0785C21.2976 7.85281 19.8552 5.39036 18.1312 4.62931L15.7081 10.1183C15.2306 9.90749 14.7257 9.46421 14.4835 8.76251C14.2296 8.02696 14.3368 7.17373 14.8275 6.51033L19.6512 10.0785ZM18.1312 4.62931C17.2852 4.25587 16.4005 4.21981 15.6531 4.37376C14.931 4.52252 13.9891 4.92692 13.3161 5.83672L18.1398 9.40488C17.6993 10.0003 17.1498 10.1914 16.8637 10.2504C16.5523 10.3145 16.1472 10.3121 15.7081 10.1183L18.1312 4.62931ZM13.3263 5.82305L4.51922 17.5887L9.3226 21.1842L18.1296 9.41855L13.3263 5.82305ZM4.53948 17.562C3.98688 18.2833 3.17919 18.9719 2.14662 19.5036L4.89373 24.8378C6.65151 23.9326 8.16911 22.6901 9.30235 21.211L4.53948 17.562ZM2.16544 19.494L0.479611 20.3473L3.18907 25.7007L4.87491 24.8474L2.16544 19.494ZM4.82593 23.2485L4.94219 21.6992L-1.04098 21.2502L-1.15725 22.7995L4.82593 23.2485ZM4.94367 21.6786C4.98704 21.0419 5.23824 20.3294 5.77391 19.616L0.975777 16.0135C-0.174386 17.5454 -0.911433 19.3477 -1.04245 21.2707L4.94367 21.6786ZM5.77653 19.6125L14.5836 7.8468L9.78019 4.2513L0.973158 16.017L5.77653 19.6125ZM14.5937 7.83313C16.2401 5.60746 14.7977 3.14501 13.0736 2.38395L10.6506 7.87295C10.1731 7.66213 9.66824 7.21885 9.42601 6.51715C9.1721 5.7816 9.27929 4.92837 9.77002 4.26497L14.5937 7.83313ZM13.0736 2.38395C12.2277 2.01051 11.343 1.97445 10.5956 2.1284C9.87348 2.27716 8.93157 2.68156 8.25858 3.59136L13.0823 7.15952C12.6418 7.75497 12.0923 7.94606 11.8062 8.00501C11.4948 8.06915 11.0897 8.06677 10.6506 7.87295L13.0736 2.38395ZM8.26591 3.5815L-0.512059 15.3472L4.29701 18.9351L13.075 7.16938L8.26591 3.5815ZM-0.497343 15.3276C-1.81821 17.0683 -2.59201 19.0713 -2.7551 21.1502L3.22652 21.6195C3.29595 20.7345 3.62667 19.8186 4.28229 18.9546L-0.497343 15.3276Z" fill="white" mask="url(#path-3-inside-2_601_121)"/>
<path d="M18.1183 4.57126L14.3694 2.89725L14.7614 2.35051C15 2.02866 15.4597 1.70864 16.1447 1.56857C16.8339 1.42764 17.5358 1.50915 18.1202 1.76498C18.6984 2.01806 18.9795 2.36996 19.0758 2.65094C19.1632 2.90608 19.1395 3.18352 18.9082 3.49931C18.908 3.49967 18.9077 3.50004 18.9074 3.5004L18.1183 4.57126Z" fill="white" stroke="white" stroke-width="3"/>
<path d="M24.1281 24.9998C24.6096 24.9998 25 24.6982 25 24.3262C25 23.9542 24.6096 23.6526 24.1281 23.6526C23.6465 23.6526 23.2561 23.9542 23.2561 24.3262C23.2561 24.6982 23.6465 24.9998 24.1281 24.9998Z" fill="white" stroke="white" stroke-width="5"/>
</svg>
