<svg width="200" height="200" viewBox="0 0 200 200" fill="none" xmlns="http://www.w3.org/2000/svg">
<path d="M100 190C149.706 190 190 149.706 190 100C190 50.2944 149.706 10 100 10C50.2944 10 10 50.2944 10 100C10 149.706 50.2944 190 100 190Z" fill="#00A8D1"/>
<path d="M99.75 37C75.6875 37 56 56.6875 56 80.75C56 113.562 99.75 162 99.75 162C99.75 162 143.5 113.562 143.5 80.75C143.5 56.6875 123.812 37 99.75 37ZM99.75 112C82.5625 112 68.5 97.9375 68.5 80.75C68.5 63.5625 82.5625 49.5 99.75 49.5C116.938 49.5 131 63.5625 131 80.75C131 97.9375 116.938 112 99.75 112Z" fill="#FF7700"/>
<path d="M85.75 103.7H87.2885L114.429 76.2407C114.784 75.7551 114.587 75.5124 113.837 75.5124H102.634L114.429 60.8116C114.784 60.3261 114.508 60.0833 113.64 60.0833H98.6101C98.1762 60.0833 97.8211 60.2452 97.4661 60.5689L86.4995 80.5295C86.4206 81.015 86.6573 81.2578 87.249 81.2578H98.0973L85.75 103.7Z" fill="#FFFF00"/>
<path d="M106 130.75H93.5V162H106V130.75Z" fill="white"/>
<path d="M112.25 152.625H87.25V162H112.25V152.625Z" fill="white"/>
</svg>
