<svg width="28" height="28" viewBox="0 0 28 28" fill="none" xmlns="http://www.w3.org/2000/svg">
<g clip-path="url(#clip0_573_55)">
<path d="M22.3496 6.4314L21.1786 6.21189C21.0689 6.19213 20.9663 6.14393 20.8811 6.0721C20.7959 6.00027 20.731 5.90733 20.6929 5.80257C20.6396 5.65102 20.5782 5.5024 20.5091 5.35733C20.4621 5.25643 20.4424 5.14497 20.4519 5.03407C20.4614 4.92317 20.4998 4.8167 20.5633 4.72528L21.2358 3.74227C21.2903 3.66253 21.3153 3.56623 21.3063 3.47003C21.2974 3.37384 21.2551 3.28379 21.1868 3.21547L20.4722 2.50088C20.4039 2.43256 20.3139 2.39027 20.2177 2.38132C20.1215 2.37238 20.0252 2.39735 19.9455 2.4519L18.9625 3.1243C18.871 3.18781 18.7646 3.22624 18.6537 3.23576C18.5428 3.24528 18.4313 3.22554 18.3304 3.17853C18.1853 3.10953 18.0367 3.04817 17.8852 2.99471C17.7805 2.95667 17.6875 2.89179 17.6157 2.80655C17.5439 2.72132 17.4957 2.61872 17.4759 2.50901L17.2562 1.3379C17.2384 1.24295 17.1879 1.15721 17.1136 1.09551C17.0393 1.03381 16.9457 1.00003 16.8491 1H15.8385C15.7419 1.00003 15.6483 1.03381 15.574 1.09551C15.4997 1.15721 15.4492 1.24295 15.4314 1.3379L15.2117 2.50901C15.1919 2.61871 15.1438 2.7213 15.0719 2.80652C15.0001 2.89175 14.9072 2.95663 14.8024 2.99467C14.6509 3.04817 14.5023 3.10954 14.3572 3.17853C14.2563 3.22554 14.1448 3.24527 14.0339 3.23575C13.923 3.22624 13.8166 3.18781 13.7252 3.1243L12.7422 2.4519C12.6625 2.39735 12.5662 2.37238 12.47 2.38133C12.3738 2.39027 12.2837 2.43256 12.2154 2.50088L11.5009 3.21536C11.4325 3.28368 11.3903 3.37373 11.3813 3.46992C11.3724 3.56612 11.3973 3.66241 11.4519 3.74216L12.1243 4.72513C12.1878 4.81655 12.2262 4.92302 12.2357 5.03392C12.2453 5.14482 12.2255 5.25628 12.1786 5.35718C12.1095 5.50225 12.0481 5.65087 11.9947 5.80242C11.9566 5.90719 11.8917 6.00014 11.8065 6.07197C11.7213 6.1438 11.6187 6.192 11.5089 6.21174L10.3379 6.43125C10.243 6.44908 10.1572 6.49953 10.0955 6.57389C10.0338 6.64824 10 6.74182 10 6.83845V7.84897C10 7.9456 10.0338 8.03919 10.0955 8.11354C10.1572 8.18789 10.243 8.23833 10.3379 8.25614L11.5089 8.47565C11.6186 8.49541 11.7212 8.54362 11.8064 8.61545C11.8917 8.68729 11.9565 8.78024 11.9946 8.88501C12.048 9.03654 12.1094 9.18515 12.1784 9.33021C12.2254 9.43111 12.2452 9.54257 12.2357 9.65347C12.2261 9.76437 12.1877 9.87084 12.1242 9.96226L11.4518 10.9453C11.3972 11.025 11.3723 11.1213 11.3812 11.2175C11.3902 11.3137 11.4324 11.4037 11.5007 11.4721L12.2153 12.1867C12.2837 12.255 12.3737 12.2973 12.4699 12.3063C12.5661 12.3152 12.6624 12.2902 12.7422 12.2357L13.7251 11.5633C13.8165 11.4998 13.923 11.4613 14.0339 11.4518C14.1448 11.4423 14.2562 11.462 14.3571 11.509C14.5022 11.578 14.6508 11.6394 14.8024 11.6929C14.9071 11.7309 15.0001 11.7958 15.0719 11.881C15.1437 11.9663 15.1919 12.0689 15.2116 12.1786L15.4313 13.3496C15.4491 13.4446 15.4996 13.5303 15.5739 13.592C15.6483 13.6537 15.7418 13.6875 15.8384 13.6875H16.8489C16.9455 13.6875 17.0391 13.6537 17.1134 13.592C17.1878 13.5304 17.2382 13.4446 17.256 13.3497L17.4758 12.1785C17.4955 12.0688 17.5437 11.9663 17.6155 11.881C17.6873 11.7958 17.7802 11.7309 17.885 11.6929C18.0365 11.6394 18.1851 11.5781 18.3302 11.509C18.4311 11.462 18.5426 11.4423 18.6535 11.4518C18.7644 11.4613 18.8709 11.4998 18.9623 11.5633L19.9454 12.2359C20.0251 12.2904 20.1214 12.3154 20.2176 12.3065C20.3138 12.2975 20.4039 12.2552 20.4722 12.1869L21.1868 11.4723C21.2551 11.404 21.2974 11.3139 21.3063 11.2178C21.3153 11.1216 21.2903 11.0253 21.2358 10.9455L20.5633 9.96249C20.4998 9.87106 20.4614 9.76459 20.4519 9.65369C20.4424 9.54278 20.4622 9.43133 20.5092 9.33043C20.5782 9.18536 20.6395 9.03676 20.6929 8.88524C20.731 8.7805 20.7959 8.68759 20.8811 8.61578C20.9663 8.54397 21.0689 8.49578 21.1785 8.47603L22.3496 8.25652C22.4445 8.23872 22.5303 8.18829 22.592 8.11393C22.6537 8.03958 22.6875 7.94598 22.6875 7.84935V6.83883C22.6876 6.74216 22.6538 6.64852 22.5921 6.57411C22.5304 6.49971 22.4446 6.44922 22.3496 6.4314ZM16.3438 9.69517C15.8788 9.69516 15.4242 9.55726 15.0376 9.29889C14.651 9.04053 14.3496 8.67331 14.1717 8.24368C13.9937 7.81404 13.9472 7.34128 14.0379 6.88518C14.1286 6.42909 14.3525 6.01013 14.6813 5.6813C15.0101 5.35248 15.4291 5.12854 15.8852 5.03781C16.3412 4.94709 16.814 4.99365 17.2436 5.17161C17.6732 5.34956 18.0404 5.65092 18.2988 6.03758C18.5571 6.42424 18.695 6.87883 18.695 7.34386C18.695 7.65264 18.6342 7.9584 18.5161 8.24367C18.3979 8.52894 18.2247 8.78815 18.0064 9.00649C17.788 9.22483 17.5289 9.39802 17.2436 9.51619C16.9583 9.63435 16.6526 9.69517 16.3438 9.69517Z" fill="#444444"/>
<path d="M24.7257 18.3274C24.1699 17.3646 22.9693 17.0248 21.9914 17.5531L18.5357 19.3759L18.5308 19.3785C18.0929 19.6159 17.6046 19.7541 17.108 19.7826C17.2536 19.5154 17.3363 19.2092 17.3363 18.8842C17.3363 17.8453 16.491 17 15.4521 17H12.6451C10.7459 17 9.12486 17.6333 8.00484 18.7769V18.1662C8.00484 17.5914 7.53731 17.1239 6.9626 17.1239H0.490186C0.219482 17.1238 0 17.3433 0 17.614V25.0426C0 25.3133 0.219482 25.5328 0.490186 25.5328L6.9626 25.5392C7.53731 25.5392 8.00484 25.0716 8.00484 24.4969V24.0105L9.99625 24.53C10.5141 24.6651 11.0482 24.7336 11.5836 24.7336H16.0897C16.8137 24.7336 17.533 24.5514 18.1668 24.2084L23.9317 21.1389C24.4195 20.8745 24.7713 20.4348 24.9221 19.9008C25.073 19.3668 25.0032 18.808 24.7257 18.3274ZM4.14673 24.5524H0.980372V18.1041H4.14673V24.5524ZM7.02447 20.2409C7.02256 20.2669 7.02222 20.293 7.02447 20.3189V23.376V24.4969C7.02447 24.531 6.99673 24.5587 6.9626 24.5587H5.12705V18.1041H6.9626C6.99668 18.1041 7.02447 18.1318 7.02447 18.166V20.2409ZM23.9787 19.6343C23.9004 19.9115 23.7178 20.1398 23.4677 20.2753L17.703 23.3447C17.2092 23.612 16.6513 23.7533 16.0897 23.7533H11.5836C11.1317 23.7533 10.6809 23.6954 10.2438 23.5813L8.00484 22.9973V20.3983C8.86954 18.8597 10.5529 17.9801 12.6451 17.9801H15.4521C15.9505 17.9801 16.356 18.3855 16.356 18.884C16.356 19.3824 15.9505 19.7879 15.4521 19.7879H12.1047C11.8341 19.7879 11.6146 20.0074 11.6146 20.2781C11.6146 20.5487 11.834 20.7683 12.1047 20.7683H15.4521H16.9158C17.6398 20.7683 18.3587 20.5862 18.9955 20.2416L22.4511 18.4188L22.456 18.4162C22.964 18.1409 23.588 18.3172 23.8768 18.8175C24.0207 19.067 24.0569 19.3571 23.9787 19.6343Z" fill="#444444" stroke="#444444" stroke-width="0.8"/>
</g>
<defs>
<clipPath id="clip0_573_55">
<rect width="28" height="28" fill="white"/>
</clipPath>
</defs>
</svg>
