<svg width="28" height="22" viewBox="0 0 24 22" fill="#444444" xmlns="http://www.w3.org/2000/svg">
<path d="M12.9809 20C12.6828 20 12.397 20.1054 12.1862 20.2929C11.9755 20.4804 11.8571 20.7348 11.8571 21C11.8571 21.2652 11.9755 21.5196 12.1862 21.7071C12.397 21.8946 12.6828 22 12.9809 22H21.9713C22.2694 22 22.5552 21.8946 22.766 21.7071C22.9768 21.5196 23.0952 21.2652 23.0952 21V1C23.0952 0.734784 22.9768 0.48043 22.766 0.292893C22.5552 0.105357 22.2694 0 21.9713 0H12.9809C12.6828 0 12.397 0.105357 12.1862 0.292893C11.9755 0.48043 11.8571 0.734784 11.8571 1C11.8571 1.26522 11.9755 1.51957 12.1862 1.70711C12.397 1.89464 12.6828 2 12.9809 2H20.8475V20H12.9809Z" fill="#444444"/>
<path d="M0.619019 11C0.619019 11.2652 0.73742 11.5196 0.948175 11.7071C1.15893 11.8946 1.44478 12 1.74283 12H14.7633L12.1864 14.293C12.0791 14.3852 11.9934 14.4956 11.9345 14.6176C11.8756 14.7396 11.8446 14.8708 11.8433 15.0036C11.842 15.1364 11.8705 15.268 11.927 15.3909C11.9835 15.5138 12.0669 15.6255 12.1725 15.7194C12.278 15.8133 12.4035 15.8875 12.5416 15.9378C12.6797 15.9881 12.8277 16.0134 12.9769 16.0122C13.1261 16.0111 13.2736 15.9835 13.4107 15.9311C13.5478 15.8787 13.6718 15.8025 13.7755 15.707L18.2707 11.707C18.4814 11.5195 18.5997 11.2652 18.5997 11C18.5997 10.7348 18.4814 10.4805 18.2707 10.293L13.7755 6.29299C13.6718 6.19748 13.5478 6.1213 13.4107 6.06889C13.2736 6.01648 13.1261 5.98889 12.9769 5.98774C12.8277 5.98659 12.6797 6.01189 12.5416 6.06217C12.4035 6.11245 12.278 6.1867 12.1725 6.28059C12.0669 6.37449 11.9835 6.48614 11.927 6.60904C11.8705 6.73193 11.842 6.86361 11.8433 6.99639C11.8446 7.12917 11.8756 7.26039 11.9345 7.38239C11.9934 7.5044 12.0791 7.61474 12.1864 7.70699L14.7633 9.99999H1.74283C1.44478 9.99999 1.15893 10.1053 0.948175 10.2929C0.73742 10.4804 0.619019 10.7348 0.619019 11Z" fill="#444444"/>
</svg>
