<svg width="28" height="28" viewBox="0 0 28 28" fill="none" xmlns="http://www.w3.org/2000/svg">
<path d="M12.25 3.5C8.87762 3.5 6.125 6.25262 6.125 9.625C6.125 11.7327 7.20226 13.6081 8.83203 14.7109C5.71079 16.0495 3.5 19.1461 3.5 22.75H5.25C5.25 18.8732 8.37317 15.75 12.25 15.75C13.454 15.75 14.5726 16.0631 15.5586 16.5977C14.5872 17.7997 14 19.3402 14 21C14 24.8556 17.1444 28 21 28C24.8556 28 28 24.8556 28 21C28 17.1444 24.8556 14 21 14C19.4712 14 18.0519 14.5028 16.8984 15.3398C16.5113 15.0966 16.0933 14.8931 15.668 14.7109C17.2977 13.6081 18.375 11.7327 18.375 9.625C18.375 6.25262 15.6224 3.5 12.25 3.5ZM12.25 5.25C14.6766 5.25 16.625 7.19839 16.625 9.625C16.625 12.0516 14.6766 14 12.25 14C9.82339 14 7.875 12.0516 7.875 9.625C7.875 7.19839 9.82339 5.25 12.25 5.25ZM21 15.75C23.9099 15.75 26.25 18.0901 26.25 21C26.25 23.9099 23.9099 26.25 21 26.25C18.0901 26.25 15.75 23.9099 15.75 21C15.75 18.0901 18.0901 15.75 21 15.75ZM20.125 17.5V20.125H17.5V21.875H20.125V24.5H21.875V21.875H24.5V20.125H21.875V17.5H20.125Z" fill="#444444"/>
</svg>
